<svg width="213" height="30" viewBox="0 0 213 30" fill="none" xmlns="http://www.w3.org/2000/svg">
<path d="M0.401989 29V1.36364H11.3054C13.4015 1.36364 15.1873 1.76397 16.6626 2.56463C18.138 3.3563 19.2625 4.45833 20.0362 5.87074C20.8189 7.27415 21.2102 8.89347 21.2102 10.7287C21.2102 12.5639 20.8144 14.1832 20.0227 15.5866C19.2311 16.9901 18.084 18.0831 16.5817 18.8658C15.0883 19.6484 13.2801 20.0398 11.157 20.0398H4.20739V15.3572H10.2124C11.3369 15.3572 12.2635 15.1638 12.9922 14.777C13.7299 14.3812 14.2786 13.8369 14.6385 13.1442C15.0073 12.4425 15.1918 11.6373 15.1918 10.7287C15.1918 9.81108 15.0073 9.01042 14.6385 8.3267C14.2786 7.63399 13.7299 7.09872 12.9922 6.72088C12.2545 6.33404 11.3189 6.14062 10.1854 6.14062H6.24503V29H0.401989ZM25.0055 29V1.36364H43.6277V6.18111H30.8485V12.7663H42.6696V17.5838H30.8485V24.1825H43.6816V29H25.0055ZM73.6694 15.1818C73.6694 18.1955 73.0981 20.7595 71.9556 22.8736C70.8221 24.9877 69.2747 26.6025 67.3136 27.718C65.3614 28.8246 63.1663 29.3778 60.7283 29.3778C58.2724 29.3778 56.0683 28.8201 54.1161 27.7045C52.1639 26.589 50.6211 24.9742 49.4876 22.8601C48.354 20.746 47.7873 18.1866 47.7873 15.1818C47.7873 12.1681 48.354 9.60417 49.4876 7.49006C50.6211 5.37595 52.1639 3.76562 54.1161 2.65909C56.0683 1.54356 58.2724 0.985794 60.7283 0.985794C63.1663 0.985794 65.3614 1.54356 67.3136 2.65909C69.2747 3.76562 70.8221 5.37595 71.9556 7.49006C73.0981 9.60417 73.6694 12.1681 73.6694 15.1818ZM67.7454 15.1818C67.7454 13.2296 67.453 11.5833 66.8683 10.2429C66.2925 8.90246 65.4783 7.88589 64.4258 7.19318C63.3732 6.50047 62.1407 6.15412 60.7283 6.15412C59.3159 6.15412 58.0835 6.50047 57.0309 7.19318C55.9783 7.88589 55.1597 8.90246 54.5749 10.2429C53.9992 11.5833 53.7113 13.2296 53.7113 15.1818C53.7113 17.134 53.9992 18.7803 54.5749 20.1207C55.1597 21.4612 55.9783 22.4777 57.0309 23.1705C58.0835 23.8632 59.3159 24.2095 60.7283 24.2095C62.1407 24.2095 63.3732 23.8632 64.4258 23.1705C65.4783 22.4777 66.2925 21.4612 66.8683 20.1207C67.453 18.7803 67.7454 17.134 67.7454 15.1818ZM77.9977 29V1.36364H88.9011C90.9972 1.36364 92.783 1.76397 94.2583 2.56463C95.7337 3.3563 96.8583 4.45833 97.6319 5.87074C98.4146 7.27415 98.8059 8.89347 98.8059 10.7287C98.8059 12.5639 98.4101 14.1832 97.6184 15.5866C96.8268 16.9901 95.6797 18.0831 94.1774 18.8658C92.684 19.6484 90.8758 20.0398 88.7527 20.0398H81.8031V15.3572H87.8081C88.9326 15.3572 89.8592 15.1638 90.5879 14.777C91.3256 14.3812 91.8743 13.8369 92.2342 13.1442C92.603 12.4425 92.7875 11.6373 92.7875 10.7287C92.7875 9.81108 92.603 9.01042 92.2342 8.3267C91.8743 7.63399 91.3256 7.09872 90.5879 6.72088C89.8502 6.33404 88.9146 6.14062 87.7811 6.14062H83.8407V29H77.9977ZM102.601 29V1.36364H108.444V24.1825H120.292V29H102.601ZM124.162 29V1.36364H142.784V6.18111H130.005V12.7663H141.826V17.5838H130.005V24.1825H142.838V29H124.162ZM150.681 29.3509C149.791 29.3509 149.026 29.036 148.387 28.4062C147.758 27.7675 147.443 27.0028 147.443 26.1122C147.443 25.2306 147.758 24.4749 148.387 23.8452C149.026 23.2154 149.791 22.9006 150.681 22.9006C151.545 22.9006 152.301 23.2154 152.949 23.8452C153.596 24.4749 153.92 25.2306 153.92 26.1122C153.92 26.706 153.767 27.2502 153.461 27.745C153.164 28.2308 152.773 28.6222 152.287 28.919C151.801 29.2069 151.266 29.3509 150.681 29.3509ZM183.132 11.0391H177.221C177.113 10.2744 176.893 9.59517 176.56 9.00142C176.227 8.39867 175.8 7.88589 175.278 7.46307C174.756 7.04024 174.154 6.71638 173.47 6.49148C172.795 6.26657 172.062 6.15412 171.27 6.15412C169.84 6.15412 168.594 6.50947 167.532 7.22017C166.471 7.92187 165.648 8.94744 165.063 10.2969C164.478 11.6373 164.186 13.2656 164.186 15.1818C164.186 17.152 164.478 18.8073 165.063 20.1477C165.657 21.4882 166.484 22.5002 167.546 23.1839C168.608 23.8677 169.836 24.2095 171.23 24.2095C172.013 24.2095 172.737 24.1061 173.403 23.8991C174.077 23.6922 174.675 23.3909 175.197 22.995C175.719 22.5902 176.151 22.0999 176.493 21.5241C176.844 20.9484 177.086 20.2917 177.221 19.554L183.132 19.581C182.979 20.8494 182.597 22.0729 181.985 23.2514C181.382 24.4209 180.568 25.469 179.542 26.3956C178.526 27.3132 177.311 28.0419 175.899 28.5817C174.496 29.1125 172.908 29.3778 171.135 29.3778C168.671 29.3778 166.466 28.8201 164.523 27.7045C162.589 26.589 161.06 24.9742 159.935 22.8601C158.82 20.746 158.262 18.1866 158.262 15.1818C158.262 12.1681 158.829 9.60417 159.962 7.49006C161.096 5.37595 162.634 3.76562 164.577 2.65909C166.52 1.54356 168.706 0.985794 171.135 0.985794C172.737 0.985794 174.221 1.2107 175.589 1.66051C176.965 2.11032 178.184 2.76704 179.246 3.63068C180.307 4.48532 181.171 5.53338 181.836 6.77486C182.511 8.01633 182.943 9.43774 183.132 11.0391ZM212.718 15.1818C212.718 18.1955 212.147 20.7595 211.004 22.8736C209.871 24.9877 208.324 26.6025 206.362 27.718C204.41 28.8246 202.215 29.3778 199.777 29.3778C197.321 29.3778 195.117 28.8201 193.165 27.7045C191.213 26.589 189.67 24.9742 188.536 22.8601C187.403 20.746 186.836 18.1866 186.836 15.1818C186.836 12.1681 187.403 9.60417 188.536 7.49006C189.67 5.37595 191.213 3.76562 193.165 2.65909C195.117 1.54356 197.321 0.985794 199.777 0.985794C202.215 0.985794 204.41 1.54356 206.362 2.65909C208.324 3.76562 209.871 5.37595 211.004 7.49006C212.147 9.60417 212.718 12.1681 212.718 15.1818ZM206.794 15.1818C206.794 13.2296 206.502 11.5833 205.917 10.2429C205.341 8.90246 204.527 7.88589 203.475 7.19318C202.422 6.50047 201.19 6.15412 199.777 6.15412C198.365 6.15412 197.132 6.50047 196.08 7.19318C195.027 7.88589 194.209 8.90246 193.624 10.2429C193.048 11.5833 192.76 13.2296 192.76 15.1818C192.76 17.134 193.048 18.7803 193.624 20.1207C194.209 21.4612 195.027 22.4777 196.08 23.1705C197.132 23.8632 198.365 24.2095 199.777 24.2095C201.19 24.2095 202.422 23.8632 203.475 23.1705C204.527 22.4777 205.341 21.4612 205.917 20.1207C206.502 18.7803 206.794 17.134 206.794 15.1818Z" fill="#6941C6"/>
</svg>
